# xmcd
#
# Track frame offsets: 
#        150
#        16485
#        38410
#        66440
#        84165
#        115694
#        134022
#        157810
#        167485
#        189568
#        208628
#        230111
#        266264
#        282430
#        299077
#        315292
#        336859
#
# Disc length: 4781 seconds
#
# Revision: 2
# Processed by: cddbd v1.5.2PL0 Copyright (c) Steve Scherf et al.
# Submitted via: ExactAudioCopy v0.95a5
#
DISCID=ef12ab11
DTITLE=Various Artist - On the Road Again  5-th Mile
DYEAR=2005
DGENRE=Blues
TTITLE0=Standing on the Edge - COLIN JAMES
TTITLE1=Got My Mind Made Up - MICROWAVE DAVE
TTITLE2=Angel Left Me Today  - TOTH BAGI BAND
TTITLE3=I Think I Love You to Much - BERNARD ALLISON
TTITLE4=Nine Need Her So Bad - AYNSLEY LISTER
TTITLE5=Darker Shade of Blue - SCOTT ELLISON
TTITLE6=Riley B.King - KEB'MO'
TTITLE7=All Mamas Children - The SHADOWS
TTITLE8=Is It Because I'm Black - LUCKY PETERSON
TTITLE9=Breaking Up Somebody's Home - BACKBONE SLIP
TTITLE10=Never Mattered Much - ROBERT CRAY
TTITLE11=Jamed Away - HEAVY BLUES CHEVY
TTITLE12=Home Is Where the Hatred - J.J.MILTEAU
TTITLE13=Tell Me When - RADIO KINGS
TTITLE14=Invitation to the Blues - BLUES COMPANY
TTITLE15=Don't Cry to Me - BILLY C.FARLOW
TTITLE16=Gimme Your Number - TOSCHO
EXTD=
EXTT0=
EXTT1=
EXTT2=
EXTT3=
EXTT4=
EXTT5=
EXTT6=
EXTT7=
EXTT8=
EXTT9=
EXTT10=
EXTT11=
EXTT12=
EXTT13=
EXTT14=
EXTT15=
EXTT16=
PLAYORDER=
